<?xml version="1.0" encoding="utf-8"?>
<!-- Generator: Adobe Illustrator 15.1.0, SVG Export Plug-In  -->
<!DOCTYPE svg PUBLIC "-//W3C//DTD SVG 1.1//EN" "http://www.w3.org/Graphics/SVG/1.1/DTD/svg11.dtd" [
	<!ENTITY ns_flows "http://ns.adobe.com/Flows/1.0/">
]>
<svg version="1.1"
	 xmlns="http://www.w3.org/2000/svg" xmlns:xlink="http://www.w3.org/1999/xlink" xmlns:a="http://ns.adobe.com/AdobeSVGViewerExtensions/3.0/"
	 x="0px" y="0px" width="17px" height="17px" viewBox="-0.5 -0.5 17 17" enable-background="new -0.5 -0.5 17 17"
	 xml:space="preserve">
<defs>
</defs>
<path fill="#D64229" d="M8.007,16C3.583,16,0,12.402,0,7.993C0,3.583,3.597,0,8.007,0S16,3.569,16,7.993
	C16,12.417,12.431,16,8.007,16z M12.086,8.751L8.448,5.113c-0.11-0.11-0.248-0.166-0.4-0.166c-0.151,0-0.289,0.056-0.399,0.166
	L4.01,8.751C3.9,8.861,3.845,8.999,3.845,9.15c0,0.139,0.055,0.289,0.165,0.399c0.221,0.222,0.579,0.222,0.8,0l3.238-3.238
	l3.239,3.238c0.22,0.222,0.579,0.222,0.799,0C12.307,9.33,12.307,8.973,12.086,8.751z"/>
</svg>
