<?xml version="1.0" encoding="utf-8"?>
<!DOCTYPE svg PUBLIC "-//W3C//DTD SVG 1.1//EN" "http://www.w3.org/Graphics/SVG/1.1/DTD/svg11.dtd">
<svg version="1.1" baseProfile="full"
 xmlns="http://www.w3.org/2000/svg"
 xmlns:xlink="http://www.w3.org/1999/xlink"
 xmlns:ev="http://www.w3.org/2001/xml-events" 
  height="15px" 
  width="31px" 
>
<path fill="rgb( 214, 66, 41 )"
 d="M29.576,13.415 C29.144,13.847 28.622,14.063 28.028,14.063 C27.433,14.063 26.911,13.847 26.461,13.415 C26.029,12.983 25.813,12.461 25.813,11.849 C25.813,11.237 26.029,10.715 26.461,10.301 C26.893,9.869 27.416,9.652 28.028,9.652 C28.622,9.652 29.144,9.869 29.576,10.301 C30.008,10.715 30.224,11.237 30.224,11.849 C30.224,12.461 30.008,12.983 29.576,13.415 ZM21.423,5.998 C24.033,6.79 25.311,7.996 25.311,9.923 C25.311,11.183 24.807,12.191 23.781,12.947 C22.773,13.685 21.441,14.063 19.766,14.063 C17.696,14.063 15.95,13.613 14.528,12.713 C14.528,12.713 14.528,8.932 14.528,8.932 C15.104,9.418 15.914,9.833 16.976,10.175 C18.038,10.517 18.992,10.697 19.838,10.697 C20.81,10.697 21.296,10.499 21.296,10.103 C21.296,9.923 21.116,9.76 20.756,9.598 C20.396,9.436 19.694,9.202 18.668,8.896 C16.058,8.122 14.528,7.006 14.528,4.864 C14.528,2.289 16.634,0.957 19.946,0.957 C21.567,0.957 23.079,1.299 24.501,1.965 C24.501,1.965 24.501,5.566 24.501,5.566 C23.889,5.206 23.115,4.9 22.179,4.666 C21.243,4.414 20.396,4.288 19.658,4.288 C18.92,4.288 18.542,4.45 18.542,4.756 C18.542,4.918 18.722,5.08 19.064,5.242 C19.424,5.386 20.216,5.638 21.423,5.998 ZM5.248,13.883 C5.248,13.883 0.226,1.209 0.226,1.209 C0.226,1.209 4.528,1.209 4.528,1.209 C4.528,1.209 7.157,8.716 7.157,8.716 C7.157,8.716 9.803,1.209 9.803,1.209 C9.803,1.209 13.962,1.209 13.962,1.209 C13.962,1.209 8.921,13.883 8.921,13.883 C8.921,13.883 5.248,13.883 5.248,13.883 Z "/>
</svg>
