<?xml version="1.0" encoding="utf-8"?>
<!-- Generator: Adobe Illustrator 15.1.0, SVG Export Plug-In  -->
<!DOCTYPE svg PUBLIC "-//W3C//DTD SVG 1.1//EN" "http://www.w3.org/Graphics/SVG/1.1/DTD/svg11.dtd" [
	<!ENTITY ns_flows "http://ns.adobe.com/Flows/1.0/">
]>
<svg version="1.1"
	 xmlns="http://www.w3.org/2000/svg" xmlns:xlink="http://www.w3.org/1999/xlink" xmlns:a="http://ns.adobe.com/AdobeSVGViewerExtensions/3.0/"
	 x="0px" y="0px" width="18px" height="15px" viewBox="-0.5 0 18 15" enable-background="new -0.5 0 18 15" xml:space="preserve">
<defs>
</defs>
<path fill="#D64229" d="M16.489,14.218c-0.489,0.49-1.081,0.734-1.756,0.734s-1.266-0.244-1.774-0.734
	c-0.491-0.49-0.735-1.081-0.735-1.774c0-0.694,0.245-1.287,0.735-1.756c0.489-0.489,1.082-0.735,1.774-0.735
	c0.675,0,1.267,0.247,1.756,0.735c0.491,0.469,0.734,1.062,0.734,1.756C17.226,13.137,16.98,13.728,16.489,14.218z"/>
<path fill="#D64229" d="M7.469,5.77c2.826,0.906,4.211,2.287,4.211,4.492c0,1.443-0.546,2.597-1.656,3.462
	C8.932,14.568,7.488,15,5.674,15C3.432,15,1.541,14.486,0,13.454V9.128c0.624,0.556,1.502,1.031,2.652,1.423
	c1.149,0.392,2.183,0.598,3.1,0.598c1.054,0,1.578-0.228,1.578-0.68c0-0.208-0.194-0.395-0.584-0.579
	c-0.389-0.186-1.15-0.452-2.262-0.803C1.658,8.201,0,6.924,0,4.472C0,1.524,2.281,0,5.867,0c1.756,0,3.395,0.391,4.935,1.153v4.122
	c-0.662-0.412-1.501-0.763-2.514-1.03C7.273,3.957,6.357,3.813,5.557,3.813S4.348,3.998,4.348,4.348
	c0,0.186,0.195,0.371,0.565,0.557C5.303,5.069,6.16,5.358,7.469,5.77z"/>
</svg>
